name ./resultDataOpenSim/trcMotMarkerGrf/sub09/grf-02-04.mot
datacolumns 19
datarows 25
range 0.92000000 1.01600000
endheader

                time	     ground_force_vx	     ground_force_vy	     ground_force_vz	     ground_force_px	     ground_force_py	     ground_force_pz	   l_ground_force_vx	   l_ground_force_vy	   l_ground_force_vz	   l_ground_force_px	   l_ground_force_py	   l_ground_force_pz	     ground_torque_x	     ground_torque_y	     ground_torque_z	   l_ground_torque_x	   l_ground_torque_y	   l_ground_torque_z	
          0.92000000	          0.00000000	          0.00000000	          0.00000000	          0.00000000	          0.00000000	          0.00000000	         14.58445652	        351.26426374	          6.48100844	          0.21829567	         -0.02499999	          0.01062395	          0.00000000	          0.00000000	          0.00000000	          0.00000000	         -3.36920989	          0.00000000	
          0.92400000	          0.00000000	          0.00000000	          0.00000000	          0.00000000	          0.00000000	          0.00000000	         18.08672246	        364.18774828	          4.92632759	          0.21926007	         -0.02499999	          0.01125121	          0.00000000	          0.00000000	          0.00000000	          0.00000000	         -3.76676140	          0.00000000	
          0.92800000	          0.00000000	          0.00000000	          0.00000000	          0.00000000	          0.00000000	          0.00000000	         21.31030369	        378.60425140	          3.40256351	          0.22002398	         -0.02499999	          0.01178876	          0.00000000	          0.00000000	          0.00000000	          0.00000000	         -4.17030569	          0.00000000	
          0.93200000	          0.00000000	          0.00000000	          0.00000000	          0.00000000	          0.00000000	          0.00000000	         24.19418440	        394.36908189	          1.95253162	          0.22052840	         -0.02499999	          0.01219102	          0.00000000	          0.00000000	          0.00000000	          0.00000000	         -4.57143202	          0.00000000	
          0.93600000	          0.00000000	          0.00000000	          0.00000000	          0.00000000	          0.00000000	          0.00000000	         26.70622585	        411.37475490	          0.60371607	          0.22078020	         -0.02499999	          0.01245966	          0.00000000	          0.00000000	          0.00000000	          0.00000000	         -4.96190260	          0.00000000	
          0.94000000	          0.00000000	          0.00000000	          0.00000000	          0.00000000	          0.00000000	          0.00000000	         28.84816432	        429.53346083	         -0.62031538	          0.22086658	         -0.02499999	          0.01264635	          0.00000000	          0.00000000	          0.00000000	          0.00000000	         -5.33391905	          0.00000000	
          0.94400000	          0.00000000	          0.00000000	          0.00000000	          0.00000000	          0.00000000	          0.00000000	         30.65302106	        448.68579596	         -1.69100106	          0.22092565	         -0.02499999	          0.01281596	          0.00000000	          0.00000000	          0.00000000	          0.00000000	         -5.68012256	          0.00000000	
          0.94800000	          0.00000000	          0.00000000	          0.00000000	          0.00000000	          0.00000000	          0.00000000	         32.17908245	        468.55698876	         -2.57535644	          0.22108458	         -0.02499999	          0.01301021	          0.00000000	          0.00000000	          0.00000000	          0.00000000	         -5.99344179	          0.00000000	
          0.95200000	          0.00000000	          0.00000000	          0.00000000	          0.00000000	          0.00000000	          0.00000000	         33.51073078	        488.82336832	         -3.23791095	          0.22140033	         -0.02499999	          0.01323635	          0.00000000	          0.00000000	          0.00000000	          0.00000000	         -6.26703048	          0.00000000	
          0.95600000	          0.00000000	          0.00000000	          0.00000000	          0.00000000	          0.00000000	          0.00000000	         34.76104042	        509.21145438	         -3.63633779	          0.22184758	         -0.02499999	          0.01347592	          0.00000000	          0.00000000	          0.00000000	          0.00000000	         -6.49456979	          0.00000000	
          0.96000000	          0.00000000	          0.00000000	          0.00000000	          0.00000000	          0.00000000	          0.00000000	         36.06746086	        529.53558800	         -3.71858835	          0.22235882	         -0.02499999	          0.01370275	          0.00000000	          0.00000000	          0.00000000	          0.00000000	         -6.67106347	          0.00000000	
          0.96400000	          0.00000000	          0.00000000	          0.00000000	          0.00000000	          0.00000000	          0.00000000	         37.58538131	        549.66896237	         -3.43149257	          0.22285907	         -0.02499999	          0.01389462	          0.00000000	          0.00000000	          0.00000000	          0.00000000	         -6.79392283	          0.00000000	
          0.96800000	          0.00000000	          0.00000000	          0.00000000	          0.00000000	          0.00000000	          0.00000000	         39.48103778	        569.51160903	         -2.74058321	          0.22326951	         -0.02499999	          0.01403593	          0.00000000	          0.00000000	          0.00000000	          0.00000000	         -6.86385980	          0.00000000	
          0.97200000	          0.00000000	          0.00000000	          0.00000000	          0.00000000	          0.00000000	          0.00000000	         41.91115551	        588.96924578	         -1.64614922	          0.22351746	         -0.02499999	          0.01412170	          0.00000000	          0.00000000	          0.00000000	          0.00000000	         -6.88515536	          0.00000000	
          0.97600000	          0.00000000	          0.00000000	          0.00000000	          0.00000000	          0.00000000	          0.00000000	         44.98873436	        607.90250440	         -0.17686145	          0.22356231	         -0.02499999	          0.01415695	          0.00000000	          0.00000000	          0.00000000	          0.00000000	         -6.86519276	          0.00000000	
          0.98000000	          0.00000000	          0.00000000	          0.00000000	          0.00000000	          0.00000000	          0.00000000	         48.75933941	        626.08825503	          1.62308653	          0.22343670	         -0.02499999	          0.01415572	          0.00000000	          0.00000000	          0.00000000	          0.00000000	         -6.81341402	          0.00000000	
          0.98400000	          0.00000000	          0.00000000	          0.00000000	          0.00000000	          0.00000000	          0.00000000	         53.20499928	        643.27673421	          3.68756107	          0.22325545	         -0.02499999	          0.01413754	          0.00000000	          0.00000000	          0.00000000	          0.00000000	         -6.73993201	          0.00000000	
          0.98800000	          0.00000000	          0.00000000	          0.00000000	          0.00000000	          0.00000000	          0.00000000	         58.26455269	        659.30700212	          5.92219056	          0.22313842	         -0.02499999	          0.01412694	          0.00000000	          0.00000000	          0.00000000	          0.00000000	         -6.65407294	          0.00000000	
          0.99200000	          0.00000000	          0.00000000	          0.00000000	          0.00000000	          0.00000000	          0.00000000	         63.85087085	        674.16797207	          8.21821541	          0.22314560	         -0.02499999	          0.01414832	          0.00000000	          0.00000000	          0.00000000	          0.00000000	         -6.56319260	          0.00000000	
          0.99600000	          0.00000000	          0.00000000	          0.00000000	          0.00000000	          0.00000000	          0.00000000	         69.85367946	        687.96423355	         10.47072550	          0.22330425	         -0.02499999	          0.01422032	          0.00000000	          0.00000000	          0.00000000	          0.00000000	         -6.47203673	          0.00000000	
          1.00000000	          0.00000000	          0.00000000	          0.00000000	          0.00000000	          0.00000000	          0.00000000	         76.13107656	        700.82885633	         12.58767892	          0.22361620	         -0.02499999	          0.01434585	          0.00000000	          0.00000000	          0.00000000	          0.00000000	         -6.38267110	          0.00000000	
          1.00400000	          0.00000000	          0.00000000	          0.00000000	          0.00000000	          0.00000000	          0.00000000	         82.51593499	        712.85658481	         14.49567513	          0.22404865	         -0.02499999	          0.01450739	          0.00000000	          0.00000000	          0.00000000	          0.00000000	         -6.29476558	          0.00000000	
          1.00800000	          0.00000000	          0.00000000	          0.00000000	          0.00000000	          0.00000000	          0.00000000	         88.85281294	        724.11080505	         16.14879654	          0.22456861	         -0.02499999	          0.01468607	          0.00000000	          0.00000000	          0.00000000	          0.00000000	         -6.20596490	          0.00000000	
          1.01200000	          0.00000000	          0.00000000	          0.00000000	          0.00000000	          0.00000000	          0.00000000	         95.02642860	        734.66906023	         17.53298501	          0.22515029	         -0.02499999	          0.01487278	          0.00000000	          0.00000000	          0.00000000	          0.00000000	         -6.11225302	          0.00000000	
          1.01600000	          0.00000000	          0.00000000	          0.00000000	          0.00000000	          0.00000000	          0.00000000	        100.95321732	        744.63179785	         18.66569212	          0.22576948	         -0.02499999	          0.01505990	          0.00000000	          0.00000000	          0.00000000	          0.00000000	         -6.00846275	          0.00000000	
